<?xml version="1.0" standalone="no"?><!DOCTYPE svg PUBLIC "-//W3C//DTD SVG 1.1//EN"
        "http://www.w3.org/Graphics/SVG/1.1/DTD/svg11.dtd">
<svg t="1701658310285" class="icon" viewBox="0 0 1024 1024" version="1.1" xmlns="http://www.w3.org/2000/svg" p-id="5055"
     width="20" height="20">
    <path d="M303.008 164.992q16-2.016 28.992 8l466.016 338.016q10.016 7.008 14.016 18.496t1.504 23.488-11.008 20.512-20.512 11.488l-135.008 27.008 71.008 123.008q8.992 15.008 4.512 31.488t-19.488 24.512l-86.016 50.016q-15.008 8.992-31.488 4.512t-25.504-19.488l-70.016-120.992-92 102.016q-8 8.992-19.488 12t-23.488-0.512-19.488-12.992-8.512-21.504L266.048 210.048q-0.992-16.992 9.504-30.016t27.488-15.008zM248 212l60 574.016q3.008 22.016 20 36.992l4 4q18.016 14.016 40.992 11.488t38.016-19.488l75.008-84 58.016 100q12.992 20.992 36.512 27.488t44.512-5.504l91.008-52.992q19.008-14.016 23.488-36t-6.496-42.016l-59.008-100.992 111.008-23.008q16.992-3.008 29.504-15.488t16-29.504-2.496-33.504-20.992-26.496L342.08 157.984q-15.008-10.016-32-11.008t-32.512 8-23.488 24.512-6.016 32.512z m56-28.992q8.992-0.992 16.992 4l466.016 338.016q4.992 4.992 7.488 11.488t0.992 12.992-6.496 11.488-12 6.016l-158.016 32.992 83.008 144q4.992 8 2.496 17.504t-10.496 14.496l-87.008 50.016q-8 4.992-17.504 2.496t-14.496-11.488l-82.016-142.016-108 120q-4.992 4.992-12 7.008t-13.504 0-11.008-7.488-4.512-12.512L282.944 209.024q-0.992-10.016 5.504-17.504t15.488-8.512z"
          p-id="5056"></path>
</svg>