<?xml version="1.0" encoding="UTF-8"?>
<svg width="172px" height="96px" viewBox="0 0 172 96" version="1.1" xmlns="http://www.w3.org/2000/svg" xmlns:xlink="http://www.w3.org/1999/xlink">
    <title>编组 6</title>
    <g id="组件骨架图更新" stroke="none" stroke-width="1" fill="none" fill-rule="evenodd">
        <g id="编组-6" transform="translate(0.250000, 0.000000)" fill-rule="nonzero">
            <polygon id="路径" fill="#000000" points="4.5 48.25 4.5 48.75 0 48.75 0 48.25"></polygon>
            <polygon id="路径" fill="#000000" points="12.5 48.25 12.5 48.75 8 48.75 8 48.25"></polygon>
            <polygon id="路径" fill="#000000" points="20.5 48.25 20.5 48.75 16 48.75 16 48.25"></polygon>
            <polygon id="路径" fill="#000000" points="28.5 48.25 28.5 48.75 24 48.75 24 48.25"></polygon>
            <polygon id="路径" fill="#000000" points="36.5 48.25 36.5 48.75 32 48.75 32 48.25"></polygon>
            <polygon id="路径" fill="#000000" points="44.5 48.25 44.5 48.75 40 48.75 40 48.25"></polygon>
            <polygon id="路径" fill="#000000" points="52.5 48.25 52.5 48.75 48 48.75 48 48.25"></polygon>
            <polygon id="路径" fill="#000000" points="60.5 48.25 60.5 48.75 56 48.75 56 48.25"></polygon>
            <polygon id="路径" fill="#000000" points="68.5 48.25 68.5 48.75 64 48.75 64 48.25"></polygon>
            <polygon id="路径" fill="#000000" points="76.5 48.25 76.5 48.75 72 48.75 72 48.25"></polygon>
            <polygon id="路径" fill="#000000" points="84.5 48.25 84.5 48.75 80 48.75 80 48.25"></polygon>
            <polygon id="路径" fill="#000000" points="92.5 48.25 92.5 48.75 88 48.75 88 48.25"></polygon>
            <polygon id="路径" fill="#000000" points="100.5 48.25 100.5 48.75 96 48.75 96 48.25"></polygon>
            <polygon id="路径" fill="#000000" points="108.5 48.25 108.5 48.75 104 48.75 104 48.25"></polygon>
            <polygon id="路径" fill="#000000" points="116.5 48.25 116.5 48.75 112 48.75 112 48.25"></polygon>
            <polygon id="路径" fill="#000000" points="124.5 48.25 124.5 48.75 120 48.75 120 48.25"></polygon>
            <polygon id="路径" fill="#000000" points="132.5 48.25 132.5 48.75 128 48.75 128 48.25"></polygon>
            <polygon id="路径" fill="#000000" points="140.5 48.25 140.5 48.75 136 48.75 136 48.25"></polygon>
            <polygon id="路径" fill="#000000" points="148.5 48.25 148.5 48.75 144 48.75 144 48.25"></polygon>
            <polygon id="路径" fill="#000000" points="156.5 48.25 156.5 48.75 152 48.75 152 48.25"></polygon>
            <polygon id="路径" fill="#000000" points="164.5 48.25 164.5 48.75 160 48.75 160 48.25"></polygon>
            <path d="M169.82,47.0266667 L172.02,49.96 C172.152548,50.1367311 172.116731,50.3874517 171.94,50.52 C171.870762,50.5719288 171.786548,50.6 171.7,50.6 L167.3,50.6 C167.079086,50.6 166.9,50.4209139 166.9,50.2 C166.9,50.1134519 166.928071,50.0292385 166.98,49.96 L169.18,47.0266667 C169.312548,46.8499355 169.563269,46.8141183 169.74,46.9466667 C169.770322,46.9694084 169.797258,46.9963444 169.82,47.0266667 Z" id="三角形备份-2" fill="#000000" opacity="0.45" transform="translate(169.500000, 48.600000) rotate(-270.000000) translate(-169.500000, -48.600000) "></path>
            <rect id="矩形复制-9备份" fill-opacity="0.08" fill="#1677FF" x="18.75" y="0" width="136" height="96" rx="6"></rect>
            <rect id="矩形备份-3" fill-opacity="0.16" fill="#1677FF" x="30.75" y="12" width="38" height="72" rx="6"></rect>
            <rect id="矩形备份-4" fill-opacity="0.16" fill="#1677FF" x="80.75" y="12" width="62" height="72" rx="6"></rect>
        </g>
    </g>
</svg>